# xmcd
#
# Track frame offsets:
#	150
#	11539
#	27346
#	40729
#	52746
#	66140
#	79091
#	94864
#	109590
#	122770
#	136372
#	149484
#	160273
#	172632
#	186919
#	201628
#	214470
#	227369
#	240391
#	252820
#	266591
#	281483
#	296310
#
# Disc length: 4074 seconds
#
# Revision: 1
# Processed by: cddbd v1.5.2PL0 Copyright (c) Steve Scherf et al.
# Submitted via: audiograbber 1.83.01
#
DISCID=400fe817
DTITLE=Various Artist - The Ultimate Anthology Of Blues and Jazz, Volume 1
DYEAR=1900
DGENRE=Blues
TTITLE0=Hooker, John Lee - Boom Boom
TTITLE1=King, B.B. - Outside Help
TTITLE2=Hurt, Mississippi John - Stack O'Lee
TTITLE3=Lewis,Meade Lux and Albert Ammons and Pete Johnson - Boogie Woogie Prayer
TTITLE4=Howlin' Wolf - Highway 49
TTITLE5=Johnson, Robert - Rambling On My Mind
TTITLE6=Smith, Bessie and Louis Armstrong - Careless Love
TTITLE7=Johnson, Lonnie and Eddie Lang - Guitar Blues
TTITLE8=Walker, T-Bone - Mean Old World
TTITLE9=Broonzy, Big Bill - C&A Blues
TTITLE10=Williamson, Sonny Boy - Jivin' The Blues
TTITLE11=Waters, Muddy - Standing Around Crying
TTITLE12=Jordan, Louis and His Tympany Five - Choo Choo Chi Boogie
TTITLE13=Morton's RedHot Peppers, Jelly Roll - Black Bottom Stomp
TTITLE14=Calloway, Cab and His Orchestra - Minnie The Moocher
TTITLE15=Armstrong, Louis and His Hot Five - Gut Bucket Blues
TTITLE16=Basie, Count and His Orchestra - Boogie Woogie (I May Be Wrong)
TTITLE17=Ellington, Duke and His Orchestra - Cotton Club Stomp
TTITLE18=Goodman Sextet, Benny - Seven Come Eleven
TTITLE19=McShann, Jay and His Orchestra - Jumpin' Blues
TTITLE20=Holiday, Billie - Now Or Never
TTITLE21=Parker, Charlie - Now's The Time
TTITLE22=Jarreau, Al - Ain't No Sunshine
EXTD=
EXTT0=
EXTT1=
EXTT2=
EXTT3=
EXTT4=
EXTT5=
EXTT6=
EXTT7=
EXTT8=
EXTT9=
EXTT10=
EXTT11=
EXTT12=
EXTT13=
EXTT14=
EXTT15=
EXTT16=
EXTT17=
EXTT18=
EXTT19=
EXTT20=
EXTT21=
EXTT22=
PLAYORDER=
